<?xml version="1.0" encoding="UTF-8"?>
<svg xmlns="http://www.w3.org/2000/svg" xmlns:xlink="http://www.w3.org/1999/xlink" width="13px" height="16px" viewBox="0 0 13 16" version="1.1">
<g id="surface1">
<path style=" stroke:none;fill-rule:nonzero;fill:rgb(0%,0%,0%);fill-opacity:1;" d="M 6.742188 1.761719 C 4.660156 1.761719 2.601562 3.472656 2.601562 6.238281 C 2.601562 8 3.40625 9 3.890625 9 C 4.09375 9 4.207031 8.308594 4.207031 8.113281 C 4.207031 7.882812 3.726562 7.386719 3.726562 6.421875 C 3.726562 4.410156 4.96875 2.984375 6.578125 2.984375 C 7.960938 2.984375 8.984375 3.953125 8.984375 5.730469 C 8.984375 7.058594 8.554688 9.546875 7.152344 9.546875 C 6.644531 9.546875 6.214844 9.097656 6.214844 8.453125 C 6.214844 7.507812 6.75 6.59375 6.75 5.617188 C 6.75 3.960938 4.84375 4.261719 4.84375 6.261719 C 4.84375 6.683594 4.886719 7.148438 5.039062 7.53125 C 4.757812 9.015625 4.183594 11.226562 4.183594 12.757812 C 4.183594 13.230469 4.238281 13.695312 4.277344 14.167969 C 4.34375 14.261719 4.308594 14.253906 4.414062 14.203125 C 5.441406 12.480469 5.402344 12.140625 5.867188 9.886719 C 6.117188 10.46875 6.761719 10.785156 7.273438 10.785156 C 9.429688 10.785156 10.398438 8.199219 10.398438 5.863281 C 10.398438 3.382812 8.65625 1.761719 6.742188 1.761719 Z M 6.742188 1.761719 "/>
</g>
</svg>
