<?xml version="1.0" encoding="UTF-8"?>
<svg xmlns="http://www.w3.org/2000/svg" xmlns:xlink="http://www.w3.org/1999/xlink" width="14px" height="14px" viewBox="0 0 14 14" version="1.1">
<g id="surface1">
<path style=" stroke:none;fill-rule:nonzero;fill:rgb(0%,0%,0%);fill-opacity:1;" d="M 11.449219 4.71875 C 11.457031 4.816406 11.457031 4.917969 11.457031 5.015625 C 11.457031 8.050781 9.144531 11.546875 4.925781 11.546875 C 3.621094 11.546875 2.414062 11.171875 1.398438 10.515625 C 1.582031 10.539062 1.761719 10.546875 1.953125 10.546875 C 3.027344 10.546875 4.015625 10.183594 4.804688 9.566406 C 3.796875 9.542969 2.949219 8.882812 2.65625 7.972656 C 2.800781 7.996094 2.941406 8.007812 3.089844 8.007812 C 3.296875 8.007812 3.503906 7.980469 3.695312 7.929688 C 2.640625 7.71875 1.855469 6.792969 1.855469 5.675781 L 1.855469 5.648438 C 2.160156 5.820312 2.515625 5.925781 2.890625 5.9375 C 2.273438 5.527344 1.867188 4.824219 1.867188 4.027344 C 1.867188 3.601562 1.980469 3.210938 2.179688 2.867188 C 3.3125 4.261719 5.007812 5.171875 6.914062 5.269531 C 6.878906 5.097656 6.859375 4.921875 6.859375 4.746094 C 6.859375 3.480469 7.882812 2.449219 9.152344 2.449219 C 9.8125 2.449219 10.410156 2.726562 10.832031 3.175781 C 11.347656 3.074219 11.847656 2.882812 12.289062 2.621094 C 12.117188 3.15625 11.753906 3.601562 11.277344 3.886719 C 11.742188 3.835938 12.1875 3.707031 12.601562 3.53125 C 12.289062 3.984375 11.894531 4.390625 11.449219 4.71875 Z M 11.449219 4.71875 "/>
</g>
</svg>
